<svg width="930" height="194" viewBox="0 0 930 194" xmlns="http://www.w3.org/2000/svg"><title>A099D5E2-1354-4992-871E-2BF0CECCE28E</title><g fill="none" fill-rule="evenodd"><g opacity=".256"><path d="M163.582 75.49a.558.558 0 1 1-1.116 0 .558.558 0 0 1 1.116 0M65.37 26.581a1.02 1.02 0 1 1-2.039 0 1.02 1.02 0 0 1 2.04 0M246.61 31.07a.837.837 0 1 1-1.674 0 .837.837 0 0 1 1.674 0m190.545 102.676a1.374 1.374 0 1 1-2.747 0 1.374 1.374 0 0 1 2.747 0m-196.768 20.327a1.373 1.373 0 1 1-2.746.001 1.373 1.373 0 0 1 2.746 0m6.453 8.386a1.374 1.374 0 1 1-2.748 0 1.374 1.374 0 0 1 2.748 0m7.743-96.457a1.374 1.374 0 1 1-2.747 0 1.374 1.374 0 0 1 2.747 0m60.654-12.257a1.374 1.374 0 1 1-2.747 0 1.374 1.374 0 0 1 2.747 0m58.718 104.198a1.374 1.374 0 1 1-2.748 0 1.374 1.374 0 0 1 2.748 0M204.164 73.099a1.374 1.374 0 1 1-2.747 0 1.374 1.374 0 0 1 2.747 0M179 111.16a1.374 1.374 0 1 1-2.748 0 1.374 1.374 0 0 1 2.747 0m3.916-5.161a1.373 1.373 0 1 1-2.746 0 1.373 1.373 0 0 1 2.746 0M25.112 6.034a1.374 1.374 0 1 1-2.747 0 1.374 1.374 0 0 1 2.747 0m369.684 25.155a1.374 1.374 0 1 1-2.748 0 1.374 1.374 0 0 1 2.748 0m14.517 72.581a1.374 1.374 0 1 1-2.748-.001 1.374 1.374 0 0 1 2.748 0m-91.495-17.096a1.374 1.374 0 1 1-2.748 0 1.374 1.374 0 0 1 2.748 0m26.441-65.486a1.374 1.374 0 1 1-2.747 0 1.374 1.374 0 0 1 2.747 0M95.748 8.374a1.374 1.374 0 1 1-2.748 0 1.374 1.374 0 0 1 2.748 0M77.783 150.848a1.374 1.374 0 1 1-2.747 0 1.374 1.374 0 0 1 2.747 0m232.673-20.305a1.115 1.115 0 1 1-2.231 0 1.115 1.115 0 0 1 2.23 0m-169.229-23.608a1.115 1.115 0 1 1-2.231 0 1.115 1.115 0 0 1 2.23 0M109.74 95.131a1.115 1.115 0 1 1-2.23 0 1.115 1.115 0 0 1 2.23 0M25.895 73.654a1.115 1.115 0 1 1-2.231 0 1.115 1.115 0 0 1 2.23 0M82.192 59.72a1.115 1.115 0 1 1-2.231 0 1.115 1.115 0 0 1 2.23 0M52.116 46.73a1.116 1.116 0 1 1 0-2.231 1.116 1.116 0 0 1 0 2.231zm242.597 123.16a1.115 1.115 0 1 1-2.23 0 1.115 1.115 0 0 1 2.23 0M3.48 146.282a1.115 1.115 0 1 1-2.23 0 1.115 1.115 0 0 1 2.23 0M1.116 71.524a.558.558 0 1 1-1.116 0 .558.558 0 0 1 1.116 0m474.493 2.13a1.115 1.115 0 1 1-2.23 0 1.115 1.115 0 0 1 2.23 0m49.122-56.539a1.115 1.115 0 1 1-2.23 0 1.115 1.115 0 0 1 2.23 0M160.707 49.223a1.115 1.115 0 1 1-2.23 0 1.115 1.115 0 0 1 2.23 0m59.033-23.608a1.115 1.115 0 1 1-2.23 0 1.115 1.115 0 0 1 2.23 0m-94.453 0a1.115 1.115 0 1 1-2.23 0 1.115 1.115 0 0 1 2.23 0m3.148 3.935a1.115 1.115 0 1 1-2.23 0 1.115 1.115 0 0 1 2.23 0m71.625 128.536a.558.558 0 1 1-1.116 0 .558.558 0 0 1 1.116 0M5.284 103a.558.558 0 1 1-1.116 0 .558.558 0 0 1 1.116 0m173.166 0a.558.558 0 1 1-1.117 0 .558.558 0 0 1 1.116 0m.001 74.759a.558.558 0 1 1-1.117 0 .558.558 0 0 1 1.116 0m106.261 0a.558.558 0 1 1-1.116 0 .558.558 0 0 1 1.116 0m94.454 0a.558.558 0 1 1-1.116 0 .558.558 0 0 1 1.116 0m0-39.346a.558.558 0 1 1-1.116 0 .558.558 0 0 1 1.116 0m-51.162 0a.558.558 0 1 1-1.116 0 .558.558 0 0 1 1.116 0m74.776-15.739a.558.558 0 1 1-1.116 0 .558.558 0 0 1 1.116 0m-11.807-98.366a.558.558 0 1 1-1.115 0 .558.558 0 0 1 1.115 0M225.676.7a.558.558 0 1 1-1.115 0 .558.558 0 0 1 1.115 0m-43.291 0a.558.558 0 1 1-1.115 0 .558.558 0 0 1 1.115 0m-7.871 48.523a.558.558 0 1 1-1.115 0 .558.558 0 0 1 1.115 0M107.609 19.55a.558.558 0 1 1-1.115 0 .558.558 0 0 1 1.115 0m2.007 4.008a.558.558 0 1 1-1.116 0 .558.558 0 0 1 1.116 0m25.542 24.358a.558.558 0 1 1-1.115 0 .558.558 0 0 1 1.115 0m82.647 66.889a.558.558 0 1 1-1.116 0 .558.558 0 0 1 1.116 0m-11.806 66.889a.558.558 0 1 1-1.116 0 .558.558 0 0 1 1.116 0m-26.383-41.636a.558.558 0 1 1-1.116 0 .558.558 0 0 1 1.116 0m-58.394-10.072a.558.558 0 1 1-1.116 0 .558.558 0 0 1 1.116 0m3.936-3.934a.558.558 0 1 1-1.116 0 .558.558 0 0 1 1.116 0M406.713 51.85a.558.558 0 1 1-1.115 0 .558.558 0 0 1 1.115 0" fill="#FEFEFE"/><path d="M142.535 166.405h-.148a1.009 1.009 0 0 1-1.006-1.006v-.148c0-.553.453-1.005 1.006-1.005h.148c.553 0 1.006.452 1.006 1.005v.148c0 .554-.453 1.006-1.006 1.006" fill="#464280"/></g><g opacity=".256"><path d="M568.582 75.99a.558.558 0 1 1-1.116 0 .558.558 0 0 1 1.116 0M470.37 27.081a1.02 1.02 0 1 1-2.039 0 1.02 1.02 0 0 1 2.04 0M651.61 31.57a.837.837 0 1 1-1.674 0 .837.837 0 0 1 1.674 0m190.545 102.676a1.374 1.374 0 1 1-2.747 0 1.374 1.374 0 0 1 2.747 0m-196.768 20.327a1.373 1.373 0 1 1-2.746.001 1.373 1.373 0 0 1 2.746 0m6.453 8.386a1.374 1.374 0 1 1-2.748 0 1.374 1.374 0 0 1 2.748 0m7.743-96.457a1.374 1.374 0 1 1-2.747 0 1.374 1.374 0 0 1 2.747 0m60.654-12.257a1.374 1.374 0 1 1-2.747 0 1.374 1.374 0 0 1 2.747 0m58.718 104.198a1.374 1.374 0 1 1-2.748 0 1.374 1.374 0 0 1 2.748 0M609.164 73.599a1.374 1.374 0 1 1-2.747 0 1.374 1.374 0 0 1 2.747 0M584 111.66a1.374 1.374 0 1 1-2.748 0 1.374 1.374 0 0 1 2.747 0m3.916-5.161a1.373 1.373 0 1 1-2.746 0 1.373 1.373 0 0 1 2.746 0m211.881-74.81a1.374 1.374 0 1 1-2.748 0 1.374 1.374 0 0 1 2.748 0m14.517 72.581a1.374 1.374 0 1 1-2.748-.001 1.374 1.374 0 0 1 2.748 0m-91.495-17.096a1.374 1.374 0 1 1-2.748 0 1.374 1.374 0 0 1 2.748 0m26.441-65.486a1.374 1.374 0 1 1-2.747 0 1.374 1.374 0 0 1 2.747 0M500.748 8.874a1.374 1.374 0 1 1-2.748 0 1.374 1.374 0 0 1 2.748 0m-17.965 142.474a1.374 1.374 0 1 1-2.747 0 1.374 1.374 0 0 1 2.747 0m232.673-20.305a1.115 1.115 0 1 1-2.231 0 1.115 1.115 0 0 1 2.23 0m-169.229-23.608a1.115 1.115 0 1 1-2.231 0 1.115 1.115 0 0 1 2.23 0M514.74 95.631a1.115 1.115 0 1 1-2.23 0 1.115 1.115 0 0 1 2.23 0m-83.845-21.477a1.115 1.115 0 1 1-2.231 0 1.115 1.115 0 0 1 2.23 0m56.298-13.934a1.115 1.115 0 1 1-2.231 0 1.115 1.115 0 0 1 2.23 0m-30.075-12.99a1.116 1.116 0 1 1 0-2.231 1.116 1.116 0 0 1 0 2.231zm242.597 123.16a1.115 1.115 0 1 1-2.23 0 1.115 1.115 0 0 1 2.23 0M406.116 72.024a.558.558 0 1 1-1.116 0 .558.558 0 0 1 1.116 0m474.493 2.13a1.115 1.115 0 1 1-2.23 0 1.115 1.115 0 0 1 2.23 0m49.122-56.539a1.115 1.115 0 1 1-2.23 0 1.115 1.115 0 0 1 2.23 0M565.707 49.723a1.115 1.115 0 1 1-2.23 0 1.115 1.115 0 0 1 2.23 0m59.033-23.608a1.115 1.115 0 1 1-2.23 0 1.115 1.115 0 0 1 2.23 0m-91.305 3.935a1.115 1.115 0 1 1-2.23 0 1.115 1.115 0 0 1 2.23 0m71.625 128.536a.558.558 0 1 1-1.116 0 .558.558 0 0 1 1.116 0M410.284 103.5a.558.558 0 1 1-1.116 0 .558.558 0 0 1 1.116 0m173.166 0a.558.558 0 1 1-1.117 0 .558.558 0 0 1 1.116 0m.001 74.759a.558.558 0 1 1-1.117 0 .558.558 0 0 1 1.116 0m106.261 0a.558.558 0 1 1-1.116 0 .558.558 0 0 1 1.116 0m94.454 0a.558.558 0 1 1-1.116 0 .558.558 0 0 1 1.116 0m0-39.346a.558.558 0 1 1-1.116 0 .558.558 0 0 1 1.116 0m-51.162 0a.558.558 0 1 1-1.116 0 .558.558 0 0 1 1.116 0m74.776-15.739a.558.558 0 1 1-1.116 0 .558.558 0 0 1 1.116 0m-11.807-98.366a.558.558 0 1 1-1.115 0 .558.558 0 0 1 1.115 0M630.676 1.2a.558.558 0 1 1-1.115 0 .558.558 0 0 1 1.115 0m-43.291 0a.558.558 0 1 1-1.115 0 .558.558 0 0 1 1.115 0m-7.871 48.523a.558.558 0 1 1-1.115 0 .558.558 0 0 1 1.115 0m31.485 132.471a.558.558 0 1 1-1.116 0 .558.558 0 0 1 1.116 0m-26.383-41.636a.558.558 0 1 1-1.116 0 .558.558 0 0 1 1.116 0m-58.394-10.072a.558.558 0 1 1-1.116 0 .558.558 0 0 1 1.116 0m3.936-3.934a.558.558 0 1 1-1.116 0 .558.558 0 0 1 1.116 0M811.713 52.35a.558.558 0 1 1-1.115 0 .558.558 0 0 1 1.115 0" fill="#FEFEFE"/><path d="M547.535 166.905h-.148a1.009 1.009 0 0 1-1.006-1.006v-.148c0-.553.453-1.005 1.006-1.005h.148c.553 0 1.006.452 1.006 1.005v.148c0 .554-.453 1.006-1.006 1.006" fill="#464280"/></g><path d="M66.502 69.862l.016-.008-.6-1.305.592 1.308-.592-1.308.55 1.327.034-.014z" fill="#283473"/><path d="M233.618 225.31c-14.987 0-27.136-12.15-27.136-27.138 0-14.988 12.15-27.138 27.136-27.138 14.987 0 27.136 12.15 27.136 27.138 0 14.987-12.15 27.137-27.136 27.137zm-111.479-57.07c-7.176 0-12.993 5.818-12.993 12.994 0 4.306 2.094 8.12 5.319 10.485a19.327 19.327 0 0 0-.168 2.51c0 10.579 8.576 19.156 19.155 19.156 10.58 0 19.155-8.577 19.155-19.157 0-10.536-8.506-19.083-19.026-19.153-2.195-4.07-6.495-6.835-11.442-6.835" fill="#FEFEFE" opacity=".1"/><path d="M198.539 174.155c-.797 0-1.583.052-2.355.144a9.37 9.37 0 1 0-15.33 10.617 19.823 19.823 0 0 0-2.23 9.155c0 11 8.915 19.918 19.915 19.918 10.999 0 19.915-8.917 19.915-19.918 0-10.999-8.916-19.916-19.915-19.916m7.928-5.045a4.1 4.1 0 1 1 8.202 0 4.1 4.1 0 0 1-8.202 0m27.074 17.603a1.95 1.95 0 1 1 3.9 0 1.95 1.95 0 0 1-3.9 0m-69.531-7.89a5.272 5.272 0 0 0-5.271-5.271 5.26 5.26 0 0 0-4.278 2.2 18.163 18.163 0 0 0-8.694-2.2c-10.075 0-18.243 8.168-18.243 18.244s8.168 18.244 18.243 18.244c10.076 0 18.243-8.168 18.243-18.244 0-3.148-.796-6.11-2.2-8.694a5.26 5.26 0 0 0 2.2-4.279" fill="#FEFEFE" opacity=".1"/><path d="M53.473 92.98l1.186-7.335c-3.182-.516-7.676-.592-11.311.735-1.433.818-4.315 2.84-3.514 7.403.056.32.138.643.232.97l3.539 1.435 1.015-1.436c-.005-.14 0-.278.02-.407.242-1.448 5.064-1.96 8.833-1.365" fill="#201648"/><path d="M75.928 52.429c-.187-.446-1.723-.72-2.29-.888-2.715-.149-6.064.187-9.975 1.55-11.41 3.981-19.9 11.145-19.502 15.259.398 4.113 4.776 12.87 4.776 12.87l-.133 2.52 32.407-11.298 1.299-7.896S76.636 54.11 75.928 52.43" fill="#3F296E"/><path d="M73.637 51.541c.568.167 1.027.442 1.214.888.708 1.68 4.069 12.117 4.069 12.117l2.291 7.896 5.271-1.837-4.704-16.465a.69.69 0 0 0-.302-.402c-.775-.48-3.49-1.96-7.839-2.197z" fill="#7F5287"/><path d="M75.598 64.807l-.056-.238-9.624 3.98s-4.842 2.189-4.112 7.628c.713 5.319 5.226 6.343 7.96 6.236l-.057-1.435c-5.22.2-6.27-3.423-6.48-4.992-.562-4.191 2.98-5.984 3.273-6.124l.011-.017.005.01a.096.096 0 0 0-.016.007l8.25-3.412a1.428 1.428 0 0 0 .846-1.643" fill="#504B93"/><path d="M90.846 76.487l-5.007-15.874s-8.183 3.222-8.173 3.079l-2.123.877.055.238a1.427 1.427 0 0 1-.845 1.643L66.5 69.862c-.292.14-3.834 1.933-3.272 6.124.21 1.57 1.26 5.193 6.48 4.992l.056 1.435c3.383-.133 21.36-3.317 21.36-3.317s-.1-1.04-.279-2.609" fill="#3F296E"/><path d="M73.525 75.16a4.6 4.6 0 1 1-9.199 0 4.6 4.6 0 0 1 9.199 0m-30.028 54.75s-5.571-6.633-6.765-8.756-1.194-2.52-.398-5.042c.796-2.52 10.48-20.83 12.868-24.943 2.388-4.113-5.705 38.742-5.705 38.742m-1.459 28.215l-2.3 34.318 12.56.531 13.09-42.986-12.913-16.806z" fill="#201648"/><path fill="#201648" d="M64.326 150.868l15.39 43.34 13.974.177-4.068-27.95 1.06-3.008-2.298-22.996z"/><path d="M97.293 129.579L92.452 95.15l2.653-18.398s-3.714-.53-18.22.177c-14.504.708-32.37 3.538-32.37 3.538l3.184 14.152-11.144 68.99 11.674-1.06 2.123-14.33 3.184 13.268s4.422-.177 15.92-.53c8.485-.262 22.17 1.019 28.76 1.708l-6.324-30.17 5.4-2.916z" fill="#3F296E"/><path d="M97.293 129.579l-8.686 15.134 3.729.057 5.88 17.895c2.34.244 3.788.414 3.788.414l-4.711-33.5z" fill="#7F5287"/><path d="M93.087 94.752c.313 2.346-.028 5.51-1.043 9.357l7.183 1.895c.921-3.49 1.593-7.51 1.295-11.252h-7.435zm-42.537 5.97h7.466c3.129 0 5.28 3.144 4.148 6.06l-7.671 19.756a2.376 2.376 0 0 1-4.548-.407l-3.878-19.971a4.567 4.567 0 0 1 4.483-5.438m28.781 7.305l8.971 24.47 7.334-14.262z" fill="#201648"/><path d="M85.288 101.916c5.041 3.781 9.692 26.519 9.692 26.519 1.366 1.198 6.618 1.355 6.263 2.49 3.098-4.16 6.24-8.789 8.165-11.683a4.449 4.449 0 0 0-.377-5.423c-3.548-3.99-10.384-11.558-13.896-14.652-.494-.435-2.115-3.872-4.313-5.982-2.555-2.45-3.807-3.051-6.957-2.543-1.392.224-3.619 7.493 1.423 11.274" fill="#7F5287"/><path d="M106.017 117.107s-6.667.863-6.468.067c.2-.796 4.379-.995 4.379-.995s-13.599-10.482-18.64-14.263c-5.042-3.78-4.445-8.624-3.118-10.415a2.03 2.03 0 0 1 .403-.394c-1.595.334-3.08 1.06-4.25 2.185-3.45 3.317-3.914 11.012 2.984 17.115l10.56 9.36c-.588 2.084-1.642 5.818-2.272 8.07a.053.053 0 0 1 .01-.004c-.493 1.76-.947 3.387-1.303 4.663l-.72 2.583c.717 2.255 1.973 4.321 2.926 6.49.265.601.523 1.206.774 1.814.555-.282.905-.47.905-.47s4.45-5.803 9.056-11.988c.355-1.134.019-2.507-1.347-3.706a8.03 8.03 0 0 0-1.872-1.2c-.627-.297-1.33-.454-2.06-.516 1.92-.36 3.565.269 4.402.717l3.296-6.791-2.123-.73s3.649-.132 4.776-.464c1.128-.332-.298-1.128-.298-1.128" fill="#3F296E"/><path d="M51.391 186.032l3.715-2.853-3.582.863 3.98-14.196.363-.09c-2.067-.19-4.45-.38-6.665-.486-5.572-.265-9.552.089-9.552.089l-1.327 16.01s-.707 1.415-.884 3.538c-.177 2.122 1.415 5.66 1.415 5.66l15.743-.088h9.022l.363-2.756c-1.54-.567-9.393-2.533-9.871-2.772-.53-.266-2.72-2.92-2.72-2.92" fill="#201648"/><path d="M63.973 189.79c-.336-1.258-3.7-3.233-6.915-4.035l4.35-15.423s-2.409-.288-5.54-.576l-.364.09-3.98 14.196 3.582-.863-3.715 2.853s2.19 2.653 2.72 2.919c.478.239 8.278 3.116 9.817 3.683.133-1.006.221-2.18.045-2.843" fill="#7F5287"/><path d="M92.628 187.934l-4.421 2.388s1.857-1.592 3.36-3.273c1.504-1.68-1.592-1.592-1.592-1.592s.089-.885-.353-5.042c-.368-3.454-1.529-10.081-1.91-12.223l-18.61-.425 7.076 19.547s-.265 1.77-.089 3.008c.179 1.25.17 1.219 1.062 3.803l26.356.084s.182-.603.27-1.349l-12.652-2.627 1.503-2.3z" fill="#201648"/><path d="M103.684 190.764c-.354-1.327-2.476-2.919-7.518-4.51-.818-.26-1.796-.483-2.803-.672l-1-17.284-4.651-.106c.38 2.142 1.542 8.768 1.91 12.223.442 4.158.353 5.042.353 5.042s3.096-.088 1.593 1.592c-1.504 1.681-3.362 3.272-3.362 3.272l4.422-2.387-1.503 2.299 12.622 2.836c.095-.799.12-1.618-.063-2.305" fill="#7F5287"/><path d="M50.531 107.904c.107-.117.208-.238.302-.37a3.732 3.732 0 0 0-.581-4.942c-2.827-2.52-5.567-5.783-5.632-7.84h-3.836c1.48 5.143 7.395 10.984 9.747 13.152" fill="#201648"/><path d="M40.784 94.752a9.454 9.454 0 0 1-.232-.968c-.801-4.564 1.362-6.586 2.796-7.404-3.013 1.1-5.438 3.161-6.035 6.744a9.11 9.11 0 0 0-.12 1.628c.07 5.383 4.707 10.43 8.132 13.43a3.729 3.729 0 0 0 5.206-.278c-2.352-2.168-8.268-8.01-9.747-13.152" fill="#504B93"/><path fill="#3F296E" d="M47.285 70.264l-6.463-15.89 2.334-.897 6.553 15.979z"/><path d="M44.323 53.566a2.873 2.873 0 1 1-5.746 0 2.873 2.873 0 0 1 5.746 0" fill="#0E0F37"/><path d="M94.981 84.439c-1.619-1.037-3.439-1.63-5.357-1.88-4.253-.173-8.341.66-13.822 3.857-2.868 1.883-6.053 4.725-10.205 9.253a95.932 95.932 0 0 0-9.266 11.87c.21.169.441.32.696.446l.042.021A3.676 3.676 0 0 0 61.561 107c1.836-2.283 5.431-6.187 12.03-11.639 4.98-4.114 13.659-7.048 17.387-4.663 1.148.735 1.85 2.117 2.11 4.055l3.957 3.59 3.477-3.59c-.33-4.146-1.848-7.95-5.54-10.313" fill="#201648"/><path d="M68.86 89.632c-6.882 5.685-10.849 9.925-13.072 12.686a3.711 3.711 0 0 0-.665 3.412c.208.694.618 1.33 1.209 1.808a95.882 95.882 0 0 1 9.265-11.87c4.148-4.523 7.33-7.363 10.198-9.246 5.484-3.203 9.575-4.036 13.829-3.864-7.217-.942-15.863 3.024-20.765 7.074" fill="#504B93"/><path d="M52.671 125.293a.988.988 0 1 1-1.975 0 .988.988 0 0 1 1.975 0m0-4.788a.988.988 0 1 1-1.975 0 .988.988 0 0 1 1.975 0m0-4.788a.987.987 0 1 1-1.975 0 .987.987 0 0 1 1.975 0m0-4.787a.987.987 0 1 1-1.975 0 .987.987 0 0 1 1.975 0" fill="#504993"/><path d="M82.368 132.453l-2.921 6.212a1.662 1.662 0 0 0 1.71 2.356l.165-.02a1.66 1.66 0 0 0 1.04-.551l4.275-4.85-4.269-3.147z" fill="#201648"/><path fill="#201648" d="M88.308 132.235l1.077-3.71-7.017 3.928 1.69 8.79 3.023-.09 1.047-5.686z"/><path d="M89.47 139.604a4.554 4.554 0 0 1-.617-4.768l.188-.413-1.54 1.394a2.942 2.942 0 0 0-.94 2.599l.34 2.377.011.024H85.79l-.672-1.294.952-1.649a1.468 1.468 0 0 0-.941-2.164l-.248-.057a.832.832 0 0 0-.785.232l-1.713 3.681 2.43 5.146.027.002 3.89.003.01.024 3.462-1.796-2.731-3.341z" fill="#3F296E"/><path d="M84.096 135.885l-2.492 2.536a1.867 1.867 0 0 0-.325 2.168l1.49 2.865a2.337 2.337 0 0 0 2.044 1.258l-2.43-5.146 1.713-3.681z" fill="#504993"/><path d="M89.135 65.563c-.734-3.182-1.519-4.558-2.014-5.145a.854.854 0 0 0-.979-.232l-8.477 3.506a.693.693 0 0 0 .24.582c.181.154.49.272 1.015.272 1.503 0 3.272-.619 4.422 3.361 1.15 3.98 2.21 6.723 2.83 5.661.62-1.062.31-2.963.31-2.963s.575.663.929 2.963c.353 2.3.353 2.919.353 2.919h3.082c-.331-2.887-.937-7.572-1.711-10.924" fill="#8F6190"/><path d="M131.621 146.17h52.532c-.04.394-.063.79-.063 1.19 0 .4.023.796.063 1.189h-52.532c.04-.393.064-.79.064-1.19 0-.4-.023-.795-.064-1.188" fill="#201648"/><path d="M179.247 148.549c-.88 8.57-11.189 15.466-24.27 16.384.978.068 1.968.107 2.973.107 14.463 0 26.297-7.281 27.242-16.491h-5.945z" fill="#7F5287"/><path d="M179.247 148.549h-48.538c.879 8.57 11.188 15.466 24.269 16.384 13.08-.918 23.39-7.815 24.269-16.384m-4.42-9.948c.59.668 1.114 1.362 1.567 2.081h.892a16.248 16.248 0 0 0-1.567-2.081h-.892z" fill="#201648"/><path d="M157.95 129.68c-1.161 0-2.303.052-3.426.143 8.705.703 16.135 4.056 20.303 8.778.59.668 1.114 1.362 1.568 2.081 1.08 1.712 1.762 3.557 1.96 5.489h6.837c-.945-9.21-12.78-16.491-27.241-16.491" fill="#7F5287"/><path d="M154.524 129.823c-.43.035-.855.077-1.278.124l1.333-.119-.055-.005" fill="#201648"/><path d="M177.286 140.682h-.892a16.208 16.208 0 0 0-1.567-2.081h.892c-4.231-4.793-11.822-8.18-20.697-8.813l-.443.04-1.333.12c-12.248 1.377-21.697 8.035-22.537 16.223h48.538c-.198-1.932-.881-3.777-1.96-5.489M154.172 190.296c0 .857-.699 1.551-1.56 1.551-.862 0-1.56-.694-1.56-1.55 0-.858.698-1.552 1.56-1.552.861 0 1.56.694 1.56 1.551m7.971-2.106c0 .581-.475 1.053-1.06 1.053a1.056 1.056 0 0 1-1.058-1.053c0-.58.474-1.053 1.059-1.053.584 0 1.059.472 1.059 1.053m8.973 3.79c0 .857-.699 1.551-1.56 1.551-.862 0-1.56-.694-1.56-1.55 0-.858.698-1.551 1.56-1.551.861 0 1.56.693 1.56 1.55m-26.129-.842c0 .465-.38.842-.847.842a.845.845 0 0 1-.848-.842c0-.465.38-.842.848-.842.468 0 .847.377.847.842m7.201-4.211c0 .465-.38.842-.847.842a.845.845 0 0 1-.847-.842c0-.466.379-.843.847-.843.468 0 .847.377.847.843" fill="#201648"/><path d="M139.79 148.549h-3.88a1.11 1.11 0 0 1-1.107-1.108v-.163a1.11 1.11 0 0 1 1.108-1.107h3.878c.61 0 1.108.498 1.108 1.107v.163a1.11 1.11 0 0 1-1.108 1.108m6.138 0h-1.693a1.11 1.11 0 0 1-1.108-1.108v-.163a1.11 1.11 0 0 1 1.108-1.107h1.693c.61 0 1.108.498 1.108 1.107v.163a1.11 1.11 0 0 1-1.108 1.108m12.429 0h-5.204a1.11 1.11 0 0 1-1.108-1.108v-.163a1.11 1.11 0 0 1 1.108-1.107h5.204c.61 0 1.108.498 1.108 1.107v.163a1.11 1.11 0 0 1-1.108 1.108m5.091 0h-.783a1.11 1.11 0 0 1-1.107-1.108v-.163a1.11 1.11 0 0 1 1.107-1.107h.783a1.11 1.11 0 0 1 1.107 1.107v.163a1.11 1.11 0 0 1-1.107 1.108m12.745 0h-.163a1.11 1.11 0 0 1-1.108-1.108v-.163a1.11 1.11 0 0 1 1.108-1.107h.163a1.11 1.11 0 0 1 1.108 1.107v.163a1.11 1.11 0 0 1-1.108 1.108" fill="#403A76"/></g></svg>