<svg width="75" height="75" viewBox="0 0 75 75" xmlns="http://www.w3.org/2000/svg"><title>scb-icon-learn</title><g fill="#FFF" fill-rule="evenodd"><path d="M37.88 22.447h-.016c-3.402.926-15.076 8.825-16.038 10.346 0 .852 1.171 2.06 2.801 1.28 1.63-.781 8.603-5.338 8.603-5.338s.14.47-.959 1.304c-1.097.834-10.858 7.076-11.962 8.08-.59 1.005 2.482 2.08 4.398 1.04 1.916-1.04 10.637-7.083 10.637-7.083s.19.972-1.441 1.97c-1.632.998-11.449 7.765-12.27 8.363-.822.598 2.718 2.355 4.798.976s5.881-3.923 5.881-3.923-.094 2.612.748 3.588c.843.976 3.941 5.844 4.364 6.324.423.481 2.732-2.68 1.777-4.629-.956-1.948-2.658-3.382-2.658-6.01 0-2.629 2.283-3.89 3.968-3.89 1.686 0 3.133 1.678 3.133 3.563 0 1.884-1.605 5.65-2 6.662-.396 1.012-.377 3.142.811 4.19 1.19 1.047 1.752-.87 2.315-1.682.562-.812 5.169-8.808 5.637-11.473.469-2.666.325-4.376-.934-6.923-1.219-2.467-4.467-5.427-7.211-6.625a4.977 4.977 0 0 0-.212-.092c-2.42-.99-4.02-.106-4.17-.018z"/><path d="M38.708 51.941c-.139 1.104.058 1.97.86 2.75.804.78 1.74-1.63 1.74-2.564 0-.935-.454-3.05-1.096-3.05-.643 0-1.365 1.76-1.504 2.864z"/></g></svg>